<?xml version="1.0" encoding="UTF-8"?>
<svg version="1.1" xmlns="http://www.w3.org/2000/svg" width="216" height="118">
<path d="M0 0 C71.28 0 142.56 0 216 0 C216 38.94 216 77.88 216 118 C144.72 118 73.44 118 0 118 C0 79.06 0 40.12 0 0 Z " fill="#244A59" transform="translate(0,0)"/>
<path d="M0 0 C0.92145813 -0.01283524 1.84291626 -0.02567047 2.79229736 -0.03889465 C4.29068146 -0.04997505 4.29068146 -0.04997505 5.81933594 -0.0612793 C6.84549011 -0.06935104 7.87164429 -0.07742279 8.92889404 -0.08573914 C11.10443427 -0.09958694 13.2799963 -0.11030597 15.45556641 -0.11816406 C18.77646335 -0.13535698 22.09635979 -0.17923526 25.41699219 -0.22338867 C27.53026611 -0.23351724 29.64354851 -0.24203283 31.75683594 -0.2487793 C33.24307465 -0.27504143 33.24307465 -0.27504143 34.75933838 -0.30183411 C40.51327416 -0.28381235 44.08681232 0.16007703 48.55371094 4.17700195 C49.87744141 6.05224609 49.87744141 6.05224609 50.67089844 7.9621582 C50.96738281 8.65760742 51.26386719 9.35305664 51.56933594 10.06958008 C51.85292969 10.7856543 52.13652344 11.50172852 52.42871094 12.23950195 C52.73550781 12.95944336 53.04230469 13.67938477 53.35839844 14.42114258 C54.62686925 17.47056906 55.55371094 19.84517235 55.55371094 23.17700195 C56.26398438 23.16540039 56.97425781 23.15379883 57.70605469 23.1418457 C58.62515625 23.13282227 59.54425781 23.12379883 60.49121094 23.11450195 C61.40773438 23.10290039 62.32425781 23.09129883 63.26855469 23.0793457 C65.55371094 23.17700195 65.55371094 23.17700195 66.55371094 24.17700195 C66.80371094 27.11450195 66.80371094 27.11450195 66.55371094 30.17700195 C63.55371094 32.17700195 63.55371094 32.17700195 60.55371094 32.17700195 C60.77027344 32.73387695 60.98683594 33.29075195 61.20996094 33.86450195 C63.92310538 41.30052746 64.59055197 46.68612741 61.55371094 54.17700195 C62.06229013 58.69617866 63.91190635 62.68543388 65.71386719 66.8137207 C66.02319687 67.5343721 66.33252655 68.2550235 66.65122986 68.99751282 C67.63501053 71.2884989 68.62500673 73.5767189 69.61621094 75.86450195 C70.61054944 78.16317437 71.60343809 80.46242172 72.59190369 82.7636261 C73.20600788 84.19303958 73.82355332 85.62098044 74.44483948 87.04728699 C76.55371094 91.95211965 76.55371094 91.95211965 76.55371094 94.17700195 C73.91371094 94.17700195 71.27371094 94.17700195 68.55371094 94.17700195 C68.28558594 93.45899414 68.01746094 92.74098633 67.74121094 92.0012207 C65.06371197 84.92874809 62.25969339 77.91365529 59.36621094 70.92700195 C59.02138672 70.08097412 58.6765625 69.23494629 58.32128906 68.36328125 C57.99193359 67.57477783 57.66257812 66.78627441 57.32324219 65.97387695 C56.88395386 64.91185059 56.88395386 64.91185059 56.43579102 63.82836914 C55.65721268 61.98782463 55.65721268 61.98782463 53.55371094 61.17700195 C53.59496094 62.45575195 53.63621094 63.73450195 53.67871094 65.05200195 C53.74902344 67.23168945 53.74902344 67.23168945 53.55371094 69.17700195 C51.55371094 71.17700195 51.55371094 71.17700195 47.61621094 71.48950195 C45.06935285 71.41092375 43.79666121 71.31366148 41.55371094 70.05200195 C40.55371094 68.17700195 40.55371094 68.17700195 40.55371094 62.17700195 C26.36371094 62.17700195 12.17371094 62.17700195 -2.44628906 62.17700195 C-2.44628906 64.15700195 -2.44628906 66.13700195 -2.44628906 68.17700195 C-3.44628906 70.05200195 -3.44628906 70.05200195 -5.44628906 71.17700195 C-8.24801933 71.53796107 -10.58404309 71.40416433 -13.44628906 71.17700195 C-15.44628906 69.17700195 -15.44628906 69.17700195 -15.64160156 67.23168945 C-15.5764974 65.21346029 -15.51139323 63.19523112 -15.44628906 61.17700195 C-18.57800659 63.79487682 -19.76632863 66.80318401 -21.32910156 70.5246582 C-21.58883759 71.13715927 -21.84857361 71.74966034 -22.11618042 72.38072205 C-22.94143604 74.3308277 -23.75656282 76.28497706 -24.57128906 78.23950195 C-25.39544555 80.19657325 -26.22160752 82.15278995 -27.04782104 84.10899353 C-27.79464005 85.88041694 -28.53683711 87.65378681 -29.27880859 89.42724609 C-29.95893981 91.02915281 -30.66799817 92.62042016 -31.44628906 94.17700195 C-33.75628906 94.17700195 -36.06628906 94.17700195 -38.44628906 94.17700195 C-34.95480366 84.60298147 -30.93840467 75.28753146 -26.83740234 65.96191406 C-26.41442871 64.99906494 -25.99145508 64.03621582 -25.55566406 63.04418945 C-25.1737793 62.17906738 -24.79189453 61.31394531 -24.3984375 60.42260742 C-22.48843483 55.91793959 -22.65138867 54.62861412 -24.44628906 50.17700195 C-25.13025279 43.57719607 -25.1899068 37.79242857 -21.44628906 32.17700195 C-22.23003906 32.05325195 -23.01378906 31.92950195 -23.82128906 31.80200195 C-26.44628906 31.17700195 -26.44628906 31.17700195 -28.44628906 29.17700195 C-28.69628906 26.67700195 -28.69628906 26.67700195 -28.44628906 24.17700195 C-27.78628906 23.51700195 -27.12628906 22.85700195 -26.44628906 22.17700195 C-24.28222656 22.20043945 -24.28222656 22.20043945 -21.82128906 22.55200195 C-20.59539062 22.71829102 -20.59539062 22.71829102 -19.34472656 22.88793945 C-18.71824219 22.98333008 -18.09175781 23.0787207 -17.44628906 23.17700195 C-17.27613281 22.63172852 -17.10597656 22.08645508 -16.93066406 21.5246582 C-11.75691953 5.42550632 -11.75691953 5.42550632 -6.44628906 1.17700195 C-4.08851036 -0.0018874 -2.6298934 0.03186712 0 0 Z " fill="#0FC6EE" transform="translate(86.4462890625,14.822998046875)"/>
<path d="M0 0 C6.35362146 -0.10130235 12.70703523 -0.17142368 19.0612793 -0.21972656 C21.22346784 -0.23985958 23.38560183 -0.26716833 25.54760742 -0.30175781 C28.65296884 -0.35020117 31.75761136 -0.37295172 34.86328125 -0.390625 C35.83211746 -0.41127014 36.80095367 -0.43191528 37.79914856 -0.45318604 C39.15020943 -0.45363922 39.15020943 -0.45363922 40.52856445 -0.45410156 C41.32132278 -0.46298401 42.11408112 -0.47186646 42.93086243 -0.48101807 C45 0 45 0 48 4 C49.98 8.95 51.96 13.9 54 19 C33.54 19 13.08 19 -8 19 C-4.625 8.875 -4.625 8.875 -2.3125 4.4375 C-1.87550781 3.59058594 -1.43851562 2.74367188 -0.98828125 1.87109375 C-0.66214844 1.25363281 -0.33601563 0.63617187 0 0 Z " fill="#254F5E" transform="translate(83,21)"/>
<path d="M0 0 C3.5625 0.1875 3.5625 0.1875 5.5625 2.1875 C5.875 5.1875 5.875 5.1875 5.5625 8.1875 C2.32996204 10.34252531 1.31099077 10.65606135 -2.4375 10.1875 C-4.3125 9.0625 -4.3125 9.0625 -5.4375 7.1875 C-4.88381118 0.2663897 -4.88381118 0.2663897 0 0 Z " fill="#214F5F" transform="translate(78.4375,50.8125)"/>
<path d="M0 0 C3.375 -0.125 3.375 -0.125 7 0 C9 2 9 2 9.3125 5 C9.1578125 6.485 9.1578125 6.485 9 8 C5.77626323 10.14915785 4.73296326 10.38286803 1 10 C-1 8 -1 8 -1.1875 5 C-1 2 -1 2 0 0 Z " fill="#265060" transform="translate(128,51)"/>
<path d="M0 0 C1.65 0 3.3 0 5 0 C5 3.3 5 6.6 5 10 C3.35 10 1.7 10 0 10 C0 6.7 0 3.4 0 0 Z " fill="#10BCE3" transform="translate(103,99)"/>
<path d="M0 0 C1.65 0 3.3 0 5 0 C5 3.3 5 6.6 5 10 C3.35 10 1.7 10 0 10 C0 6.7 0 3.4 0 0 Z " fill="#10BDE3" transform="translate(103,81)"/>
</svg>
